<svg width="296" height="296" viewBox="0 0 296 296" fill="none" xmlns="http://www.w3.org/2000/svg">
  <rect x="5.5" y="5.5" width="285" height="285" rx="25.5" fill="#1E1E1E" stroke="#1E1E1E" stroke-width="11"/>
  <rect x="75.5" y="75.5" width="144" height="144" rx="25.5" stroke="#155DE9" stroke-width="11"/>
  <rect x="99" y="99" width="98" height="98" rx="10" stroke="#155DE9" stroke-width="10"/>
  <path d="M151 128C147.686 128 145 130.686 145 134C145 137.314 147.686 140 151 140V128ZM196.5 128H151V140H196.5V128Z" fill="#155DE9"/>
  <path d="M151 128C147.686 128 145 130.686 145 134C145 137.314 147.686 140 151 140V128ZM196.5 128H151V140H196.5V128Z" fill="#155DE9"/>
  <path d="M151 128C147.686 128 145 130.686 145 134C145 137.314 147.686 140 151 140V128ZM196.5 128H151V140H196.5V128Z" fill="#155DE9"/>
  <path d="M172 157C168.686 157 166 159.686 166 163C166 166.314 168.686 169 172 169V157ZM197 157H172V169H197V157Z" fill="#155DE9"/>
  <path d="M172 157C168.686 157 166 159.686 166 163C166 166.314 168.686 169 172 169V157ZM197 157H172V169H197V157Z" fill="#155DE9"/>
  <path d="M172 157C168.686 157 166 159.686 166 163C166 166.314 168.686 169 172 169V157ZM197 157H172V169H197V157Z" fill="#155DE9"/>
  <path d="M193.5 220V263" stroke="#155DE9" stroke-width="9"/>
  <path d="M193.5 220V263" stroke="#155DE9" stroke-width="9"/>
  <path d="M193.5 220V263" stroke="#155DE9" stroke-width="9"/>
  <circle cx="194" cy="263" r="11" fill="#155DE9"/>
  <path d="M147.5 220V263" stroke="#155DE9" stroke-width="9"/>
  <path d="M147.5 220V263" stroke="#155DE9" stroke-width="9"/>
  <path d="M147.5 220V263" stroke="#155DE9" stroke-width="9"/>
  <circle cx="148" cy="263" r="11" fill="#155DE9"/>
  <path d="M100.5 220V263" stroke="#155DE9" stroke-width="9"/>
  <path d="M100.5 220V263" stroke="#155DE9" stroke-width="9"/>
  <path d="M100.5 220V263" stroke="#155DE9" stroke-width="9"/>
  <circle cx="101" cy="263" r="11" fill="#155DE9"/>
  <path d="M193.5 75V32" stroke="#155DE9" stroke-width="9"/>
  <path d="M193.5 75V32" stroke="#155DE9" stroke-width="9"/>
  <path d="M193.5 75V32" stroke="#155DE9" stroke-width="9"/>
  <circle cx="11" cy="11" r="11" transform="matrix(1 0 0 -1 183 43)" fill="#155DE9"/>
  <path d="M147.5 75V32" stroke="#155DE9" stroke-width="9"/>
  <path d="M147.5 75V32" stroke="#155DE9" stroke-width="9"/>
  <path d="M147.5 75V32" stroke="#155DE9" stroke-width="9"/>
  <circle cx="11" cy="11" r="11" transform="matrix(1 0 0 -1 137 43)" fill="#155DE9"/>
  <path d="M100.5 75V32" stroke="#155DE9" stroke-width="9"/>
  <path d="M100.5 75V32" stroke="#155DE9" stroke-width="9"/>
  <path d="M100.5 75V32" stroke="#155DE9" stroke-width="9"/>
  <circle cx="11" cy="11" r="11" transform="matrix(1 0 0 -1 90 43)" fill="#155DE9"/>
  <path d="M220 194.5L263 194.499" stroke="#155DE9" stroke-width="9"/>
  <path d="M220 194.5L263 194.499" stroke="#155DE9" stroke-width="9"/>
  <path d="M220 194.5L263 194.499" stroke="#155DE9" stroke-width="9"/>
  <circle cx="11" cy="11" r="11" transform="matrix(1.42324e-05 1 1 -1.42324e-05 252 184)" fill="#155DE9"/>
  <path d="M220 148.5L263 148.499" stroke="#155DE9" stroke-width="9"/>
  <path d="M220 148.5L263 148.499" stroke="#155DE9" stroke-width="9"/>
  <path d="M220 148.5L263 148.499" stroke="#155DE9" stroke-width="9"/>
  <circle cx="11" cy="11" r="11" transform="matrix(1.42324e-05 1 1 -1.42324e-05 252 138)" fill="#155DE9"/>
  <path d="M220 101.5L263 101.499" stroke="#155DE9" stroke-width="9"/>
  <path d="M220 101.5L263 101.499" stroke="#155DE9" stroke-width="9"/>
  <path d="M220 101.5L263 101.499" stroke="#155DE9" stroke-width="9"/>
  <circle cx="11" cy="11" r="11" transform="matrix(1.42324e-05 1 1 -1.42324e-05 252 91)" fill="#155DE9"/>
  <path d="M75 193.5L32 193.499" stroke="#155DE9" stroke-width="9"/>
  <path d="M75 193.5L32 193.499" stroke="#155DE9" stroke-width="9"/>
  <path d="M75 193.5L32 193.499" stroke="#155DE9" stroke-width="9"/>
  <circle cx="31.9998" cy="194" r="11" transform="rotate(90.0008 31.9998 194)" fill="#155DE9"/>
  <path d="M75 147.5L32 147.499" stroke="#155DE9" stroke-width="9"/>
  <path d="M75 147.5L32 147.499" stroke="#155DE9" stroke-width="9"/>
  <path d="M75 147.5L32 147.499" stroke="#155DE9" stroke-width="9"/>
  <circle cx="31.9998" cy="148" r="11" transform="rotate(90.0008 31.9998 148)" fill="#155DE9"/>
  <path d="M75 100.5L32 100.499" stroke="#155DE9" stroke-width="9"/>
  <path d="M75 100.5L32 100.499" stroke="#155DE9" stroke-width="9"/>
  <path d="M75 100.5L32 100.499" stroke="#155DE9" stroke-width="9"/>
  <circle cx="31.9998" cy="101" r="11" transform="rotate(90.0008 31.9998 101)" fill="#155DE9"/>
  <path d="M220 194.5L263 194.499" stroke="#155DE9" stroke-width="9"/>
  <path d="M220 194.5L263 194.499" stroke="#155DE9" stroke-width="9"/>
  <path d="M220 194.5L263 194.499" stroke="#155DE9" stroke-width="9"/>
  <circle cx="11" cy="11" r="11" transform="matrix(1.42324e-05 1 1 -1.42324e-05 252 184)" fill="#155DE9"/>
  <path d="M220 148.5L263 148.499" stroke="#155DE9" stroke-width="9"/>
  <path d="M220 148.5L263 148.499" stroke="#155DE9" stroke-width="9"/>
  <path d="M220 148.5L263 148.499" stroke="#155DE9" stroke-width="9"/>
  <circle cx="11" cy="11" r="11" transform="matrix(1.42324e-05 1 1 -1.42324e-05 252 138)" fill="#155DE9"/>
  <path d="M220 101.5L263 101.499" stroke="#155DE9" stroke-width="9"/>
  <path d="M220 101.5L263 101.499" stroke="#155DE9" stroke-width="9"/>
  <path d="M220 101.5L263 101.499" stroke="#155DE9" stroke-width="9"/>
  <circle cx="11" cy="11" r="11" transform="matrix(1.42324e-05 1 1 -1.42324e-05 252 91)" fill="#155DE9"/>
</svg>
